<svg xmlns="http://www.w3.org/2000/svg" xmlns:xlink="http://www.w3.org/1999/xlink" width="500" zoomAndPan="magnify" viewBox="0 0 375 112.499997" height="150" preserveAspectRatio="xMidYMid meet" version="1.0"><defs><g/><clipPath id="256965e4d0"><path d="M 14.066406 32.984375 L 60.359375 32.984375 L 60.359375 79.277344 L 14.066406 79.277344 Z M 14.066406 32.984375 " clip-rule="nonzero"/></clipPath></defs><g fill="#f471b7" fill-opacity="1"><g transform="translate(71.516788, 69.814707)"><g><path d="M 4.265625 0 L 4.265625 -29.265625 L 21.03125 -29.265625 L 21.03125 -25.84375 L 7.9375 -25.84375 L 7.9375 -15.71875 L 19.9375 -15.71875 L 19.9375 -12.328125 L 7.9375 -12.328125 L 7.9375 0 Z M 4.265625 0 "/></g></g><g transform="translate(94.849087, 69.814707)"><g><path d="M 13.671875 0.546875 C 11.410156 0.546875 9.414062 0.0546875 7.6875 -0.921875 C 5.957031 -1.898438 4.601562 -3.25 3.625 -4.96875 C 2.65625 -6.695312 2.171875 -8.664062 2.171875 -10.875 C 2.171875 -13.101562 2.65625 -15.066406 3.625 -16.765625 C 4.601562 -18.460938 5.957031 -19.800781 7.6875 -20.78125 C 9.414062 -21.757812 11.410156 -22.25 13.671875 -22.25 C 15.929688 -22.25 17.925781 -21.757812 19.65625 -20.78125 C 21.382812 -19.800781 22.734375 -18.460938 23.703125 -16.765625 C 24.679688 -15.066406 25.171875 -13.101562 25.171875 -10.875 C 25.171875 -8.664062 24.679688 -6.695312 23.703125 -4.96875 C 22.734375 -3.25 21.382812 -1.898438 19.65625 -0.921875 C 17.925781 0.0546875 15.929688 0.546875 13.671875 0.546875 Z M 5.6875 -10.875 C 5.6875 -9.28125 6.023438 -7.875 6.703125 -6.65625 C 7.390625 -5.445312 8.332031 -4.507812 9.53125 -3.84375 C 10.726562 -3.175781 12.109375 -2.84375 13.671875 -2.84375 C 15.234375 -2.84375 16.613281 -3.175781 17.8125 -3.84375 C 19.007812 -4.507812 19.945312 -5.445312 20.625 -6.65625 C 21.3125 -7.875 21.65625 -9.28125 21.65625 -10.875 C 21.65625 -12.457031 21.3125 -13.847656 20.625 -15.046875 C 19.945312 -16.242188 19.007812 -17.1875 17.8125 -17.875 C 16.613281 -18.5625 15.234375 -18.90625 13.671875 -18.90625 C 12.109375 -18.90625 10.726562 -18.5625 9.53125 -17.875 C 8.332031 -17.1875 7.390625 -16.242188 6.703125 -15.046875 C 6.023438 -13.847656 5.6875 -12.457031 5.6875 -10.875 Z M 5.6875 -10.875 "/></g></g></g><g fill="#f471b7" fill-opacity="1"><g transform="translate(122.195541, 69.814707)"><g><path d="M 12.546875 0.546875 C 9.703125 0.546875 7.476562 -0.367188 5.875 -2.203125 C 4.269531 -4.046875 3.46875 -6.515625 3.46875 -9.609375 L 3.46875 -21.703125 L 6.984375 -21.703125 L 6.984375 -9.953125 C 6.984375 -7.773438 7.519531 -6.046875 8.59375 -4.765625 C 9.664062 -3.484375 11.132812 -2.84375 13 -2.84375 C 15.039062 -2.84375 16.691406 -3.566406 17.953125 -5.015625 C 19.222656 -6.460938 19.859375 -8.375 19.859375 -10.75 L 19.859375 -21.703125 L 23.375 -21.703125 L 23.375 0 L 20.484375 0 L 20.109375 -3.171875 C 19.160156 -1.890625 18.023438 -0.945312 16.703125 -0.34375 C 15.378906 0.25 13.992188 0.546875 12.546875 0.546875 Z M 12.546875 0.546875 "/></g></g></g><g fill="#f471b7" fill-opacity="1"><g transform="translate(149.458365, 69.814707)"><g><path d="M 3.890625 0 L 3.890625 -21.703125 L 6.78125 -21.703125 L 7.15625 -18.515625 C 8.101562 -19.828125 9.25 -20.773438 10.59375 -21.359375 C 11.945312 -21.953125 13.347656 -22.25 14.796875 -22.25 C 17.703125 -22.25 19.960938 -21.328125 21.578125 -19.484375 C 23.191406 -17.640625 24 -15.171875 24 -12.078125 L 24 0 L 20.484375 0 L 20.484375 -11.75 C 20.484375 -13.945312 19.929688 -15.6875 18.828125 -16.96875 C 17.734375 -18.257812 16.238281 -18.90625 14.34375 -18.90625 C 13 -18.90625 11.804688 -18.578125 10.765625 -17.921875 C 9.722656 -17.265625 8.898438 -16.335938 8.296875 -15.140625 C 7.703125 -13.941406 7.40625 -12.546875 7.40625 -10.953125 L 7.40625 0 Z M 3.890625 0 "/></g></g></g><g fill="#f471b7" fill-opacity="1"><g transform="translate(176.93026, 69.814707)"><g><path d="M 13.25 0.546875 C 11.101562 0.546875 9.191406 0.0507812 7.515625 -0.9375 C 5.847656 -1.925781 4.539062 -3.273438 3.59375 -4.984375 C 2.644531 -6.703125 2.171875 -8.664062 2.171875 -10.875 C 2.171875 -13.070312 2.644531 -15.019531 3.59375 -16.71875 C 4.539062 -18.425781 5.847656 -19.773438 7.515625 -20.765625 C 9.191406 -21.753906 11.101562 -22.25 13.25 -22.25 C 14.957031 -22.25 16.519531 -21.929688 17.9375 -21.296875 C 19.351562 -20.671875 20.550781 -19.785156 21.53125 -18.640625 L 21.53125 -30.9375 L 25.046875 -30.9375 L 25.046875 0 L 22.15625 0 L 21.75 -3.34375 C 20.769531 -2.144531 19.546875 -1.195312 18.078125 -0.5 C 16.617188 0.195312 15.007812 0.546875 13.25 0.546875 Z M 5.6875 -10.875 C 5.6875 -9.3125 6.023438 -7.921875 6.703125 -6.703125 C 7.390625 -5.492188 8.332031 -4.546875 9.53125 -3.859375 C 10.726562 -3.179688 12.109375 -2.84375 13.671875 -2.84375 C 15.265625 -2.84375 16.660156 -3.179688 17.859375 -3.859375 C 19.054688 -4.546875 19.988281 -5.492188 20.65625 -6.703125 C 21.320312 -7.921875 21.65625 -9.3125 21.65625 -10.875 C 21.65625 -12.4375 21.320312 -13.820312 20.65625 -15.03125 C 19.988281 -16.238281 19.054688 -17.1875 17.859375 -17.875 C 16.660156 -18.5625 15.265625 -18.90625 13.671875 -18.90625 C 12.109375 -18.90625 10.726562 -18.5625 9.53125 -17.875 C 8.332031 -17.1875 7.390625 -16.238281 6.703125 -15.03125 C 6.023438 -13.820312 5.6875 -12.4375 5.6875 -10.875 Z M 5.6875 -10.875 "/></g></g></g><g fill="#f471b7" fill-opacity="1"><g transform="translate(205.865655, 69.814707)"><g><path d="M 13.296875 0.546875 C 11.117188 0.546875 9.191406 0.0664062 7.515625 -0.890625 C 5.847656 -1.859375 4.539062 -3.207031 3.59375 -4.9375 C 2.644531 -6.664062 2.171875 -8.644531 2.171875 -10.875 C 2.171875 -13.101562 2.644531 -15.070312 3.59375 -16.78125 C 4.539062 -18.5 5.859375 -19.835938 7.546875 -20.796875 C 9.234375 -21.765625 11.164062 -22.25 13.34375 -22.25 C 15.65625 -22.25 17.660156 -21.703125 19.359375 -20.609375 C 21.054688 -19.523438 22.359375 -18.023438 23.265625 -16.109375 C 24.171875 -14.203125 24.582031 -11.984375 24.5 -9.453125 L 5.734375 -9.453125 C 6.003906 -7.410156 6.820312 -5.785156 8.1875 -4.578125 C 9.5625 -3.367188 11.28125 -2.765625 13.34375 -2.765625 C 14.757812 -2.765625 16.050781 -3.066406 17.21875 -3.671875 C 18.394531 -4.285156 19.316406 -5.164062 19.984375 -6.3125 L 23.953125 -6.3125 C 23.085938 -4.195312 21.707031 -2.523438 19.8125 -1.296875 C 17.914062 -0.0664062 15.742188 0.546875 13.296875 0.546875 Z M 5.765625 -12.546875 L 20.984375 -12.546875 C 20.628906 -14.523438 19.757812 -16.082031 18.375 -17.21875 C 17 -18.363281 15.320312 -18.9375 13.34375 -18.9375 C 11.332031 -18.9375 9.644531 -18.347656 8.28125 -17.171875 C 6.914062 -16.003906 6.078125 -14.460938 5.765625 -12.546875 Z M 5.765625 -12.546875 "/></g></g></g><g fill="#f471b7" fill-opacity="1"><g transform="translate(232.459457, 69.814707)"><g><path d="M 3.890625 0 L 3.890625 -21.703125 L 6.78125 -21.703125 L 7.1875 -17.9375 C 7.96875 -19.25 8.9375 -20.203125 10.09375 -20.796875 C 11.25 -21.398438 12.75 -21.703125 14.59375 -21.703125 L 16.5625 -21.703125 L 16.5625 -18.4375 L 14.421875 -18.4375 C 13.109375 -18.4375 11.921875 -18.171875 10.859375 -17.640625 C 9.804688 -17.109375 8.96875 -16.226562 8.34375 -15 C 7.71875 -13.78125 7.40625 -12.140625 7.40625 -10.078125 L 7.40625 0 Z M 3.890625 0 "/></g></g></g><g fill="#f471b7" fill-opacity="1"><g transform="translate(250.696985, 69.814707)"><g><path d="M 3.515625 0 L 3.515625 -29.265625 L 14.96875 -29.265625 C 17.332031 -29.265625 19.378906 -28.832031 21.109375 -27.96875 C 22.835938 -27.101562 24.179688 -25.875 25.140625 -24.28125 C 26.109375 -22.695312 26.59375 -20.832031 26.59375 -18.6875 C 26.59375 -16.570312 26.109375 -14.71875 25.140625 -13.125 C 24.179688 -11.539062 22.835938 -10.316406 21.109375 -9.453125 C 19.378906 -8.585938 17.332031 -8.15625 14.96875 -8.15625 L 10.15625 -8.15625 L 10.15625 0 Z M 10.125 -13.875 L 14.421875 -13.875 C 16.148438 -13.875 17.476562 -14.285156 18.40625 -15.109375 C 19.34375 -15.929688 19.8125 -17.109375 19.8125 -18.640625 C 19.8125 -20.179688 19.34375 -21.367188 18.40625 -22.203125 C 17.476562 -23.035156 16.148438 -23.453125 14.421875 -23.453125 L 10.125 -23.453125 Z M 10.125 -13.875 "/></g></g></g><g fill="#f471b7" fill-opacity="1"><g transform="translate(278.503391, 69.814707)"><g><path d="M 10.5 0.421875 C 7.90625 0.421875 5.851562 -0.179688 4.34375 -1.390625 C 2.84375 -2.609375 2.09375 -4.273438 2.09375 -6.390625 C 2.09375 -8.429688 2.765625 -10.054688 4.109375 -11.265625 C 5.460938 -12.484375 7.285156 -13.09375 9.578125 -13.09375 L 17.515625 -13.09375 L 17.515625 -14.09375 C 17.515625 -15.175781 17.125 -16.046875 16.34375 -16.703125 C 15.5625 -17.359375 14.546875 -17.6875 13.296875 -17.6875 C 12.265625 -17.6875 11.382812 -17.445312 10.65625 -16.96875 C 9.9375 -16.5 9.476562 -15.875 9.28125 -15.09375 L 3.171875 -15.09375 C 3.566406 -17.488281 4.648438 -19.328125 6.421875 -20.609375 C 8.191406 -21.890625 10.46875 -22.53125 13.25 -22.53125 C 16.539062 -22.53125 19.113281 -21.703125 20.96875 -20.046875 C 22.820312 -18.390625 23.75 -16.113281 23.75 -13.21875 L 23.75 0 L 19.03125 0 L 18.3125 -2.546875 C 16.382812 -0.566406 13.78125 0.421875 10.5 0.421875 Z M 8.359375 -6.640625 C 8.359375 -5.890625 8.6875 -5.285156 9.34375 -4.828125 C 10 -4.367188 10.867188 -4.140625 11.953125 -4.140625 C 13.546875 -4.140625 14.863281 -4.597656 15.90625 -5.515625 C 16.957031 -6.441406 17.507812 -7.640625 17.5625 -9.109375 L 11.546875 -9.109375 C 10.597656 -9.109375 9.828125 -8.882812 9.234375 -8.4375 C 8.648438 -8 8.359375 -7.398438 8.359375 -6.640625 Z M 8.359375 -6.640625 "/></g></g></g><g fill="#f471b7" fill-opacity="1"><g transform="translate(305.013565, 69.814707)"><g><path d="M 13.875 9.28125 C 10.695312 9.28125 8.113281 8.554688 6.125 7.109375 C 4.132812 5.660156 3 3.664062 2.71875 1.125 L 8.90625 1.125 C 9.125 2.070312 9.660156 2.8125 10.515625 3.34375 C 11.367188 3.875 12.445312 4.140625 13.75 4.140625 C 17.269531 4.140625 19.03125 2.351562 19.03125 -1.21875 L 19.03125 -2.765625 C 18.132812 -2.066406 17.109375 -1.523438 15.953125 -1.140625 C 14.796875 -0.765625 13.5625 -0.578125 12.25 -0.578125 C 10.1875 -0.578125 8.351562 -1.046875 6.75 -1.984375 C 5.144531 -2.921875 3.890625 -4.21875 2.984375 -5.875 C 2.078125 -7.53125 1.625 -9.429688 1.625 -11.578125 C 1.625 -13.722656 2.078125 -15.617188 2.984375 -17.265625 C 3.890625 -18.910156 5.144531 -20.195312 6.75 -21.125 C 8.351562 -22.0625 10.1875 -22.53125 12.25 -22.53125 C 13.8125 -22.53125 15.253906 -22.269531 16.578125 -21.75 C 17.898438 -21.238281 19.035156 -20.5 19.984375 -19.53125 L 20.65625 -21.953125 L 25.375 -21.953125 L 25.375 -1.21875 C 25.375 0.957031 24.90625 2.832031 23.96875 4.40625 C 23.039062 5.988281 21.710938 7.195312 19.984375 8.03125 C 18.253906 8.863281 16.21875 9.28125 13.875 9.28125 Z M 7.90625 -11.578125 C 7.90625 -9.878906 8.429688 -8.5 9.484375 -7.4375 C 10.546875 -6.382812 11.914062 -5.859375 13.59375 -5.859375 C 15.257812 -5.859375 16.628906 -6.382812 17.703125 -7.4375 C 18.773438 -8.5 19.3125 -9.878906 19.3125 -11.578125 C 19.3125 -13.253906 18.773438 -14.617188 17.703125 -15.671875 C 16.628906 -16.734375 15.257812 -17.265625 13.59375 -17.265625 C 11.914062 -17.265625 10.546875 -16.734375 9.484375 -15.671875 C 8.429688 -14.617188 7.90625 -13.253906 7.90625 -11.578125 Z M 7.90625 -11.578125 "/></g></g><g transform="translate(333.614448, 69.814707)"><g><path d="M 13.546875 0.578125 C 11.203125 0.578125 9.128906 0.09375 7.328125 -0.875 C 5.535156 -1.851562 4.132812 -3.210938 3.125 -4.953125 C 2.125 -6.691406 1.625 -8.707031 1.625 -11 C 1.625 -13.28125 2.132812 -15.285156 3.15625 -17.015625 C 4.175781 -18.742188 5.582031 -20.09375 7.375 -21.0625 C 9.175781 -22.039062 11.257812 -22.53125 13.625 -22.53125 C 16.132812 -22.53125 18.300781 -21.972656 20.125 -20.859375 C 21.957031 -19.742188 23.351562 -18.179688 24.3125 -16.171875 C 25.269531 -14.171875 25.679688 -11.832031 25.546875 -9.15625 L 7.9375 -9.15625 C 8.25 -7.65625 8.921875 -6.503906 9.953125 -5.703125 C 10.984375 -4.910156 12.222656 -4.515625 13.671875 -4.515625 C 14.734375 -4.515625 15.703125 -4.71875 16.578125 -5.125 C 17.453125 -5.53125 18.15625 -6.09375 18.6875 -6.8125 L 25.125 -6.8125 C 24.175781 -4.5 22.6875 -2.6875 20.65625 -1.375 C 18.625 -0.0703125 16.253906 0.578125 13.546875 0.578125 Z M 7.984375 -13.171875 L 19.40625 -13.171875 C 19.039062 -14.503906 18.363281 -15.554688 17.375 -16.328125 C 16.382812 -17.097656 15.148438 -17.484375 13.671875 -17.484375 C 12.273438 -17.484375 11.066406 -17.097656 10.046875 -16.328125 C 9.035156 -15.554688 8.347656 -14.503906 7.984375 -13.171875 Z M 7.984375 -13.171875 "/></g></g></g><path fill="#f471b7" d="M 28.78125 67.027344 C 29.738281 67.550781 30.765625 67.832031 31.792969 67.878906 C 31.902344 67.894531 32.015625 67.886719 32.125 67.894531 C 34.300781 67.894531 36.027344 66.796875 37.078125 65.894531 C 38.683594 67.257812 40.523438 67.972656 42.328125 67.886719 C 45.695312 67.75 48.6875 65.09375 49.613281 61.4375 C 49.699219 61.105469 49.558594 60.769531 49.277344 60.59375 C 48.992188 60.417969 48.632812 60.445312 48.378906 60.660156 C 46.835938 61.972656 45.503906 62.519531 44.421875 62.296875 C 43.675781 62.140625 43.132812 61.644531 42.550781 61.121094 C 41.8125 60.460938 40.984375 59.710938 39.71875 59.710938 C 38.828125 59.6875 37.921875 60.078125 37.078125 60.832031 C 36.234375 60.078125 35.375 59.703125 34.449219 59.710938 C 33.183594 59.710938 32.347656 60.460938 31.617188 61.121094 C 31.035156 61.644531 30.484375 62.140625 29.738281 62.296875 C 28.65625 62.527344 27.328125 61.972656 25.78125 60.660156 C 25.527344 60.445312 25.160156 60.417969 24.882812 60.59375 C 24.597656 60.769531 24.460938 61.113281 24.546875 61.4375 C 25.175781 63.890625 26.714844 65.929688 28.78125 67.027344 Z M 28.78125 67.027344 " fill-opacity="1" fill-rule="nonzero"/><path fill="#f471b7" d="M 28.195312 53.933594 C 28.574219 54.117188 29.035156 53.960938 29.21875 53.578125 C 29.546875 52.910156 30.234375 52.476562 30.980469 52.476562 C 31.722656 52.476562 32.414062 52.910156 32.738281 53.578125 C 32.871094 53.851562 33.144531 54.011719 33.429688 54.011719 C 33.542969 54.011719 33.65625 53.988281 33.765625 53.933594 C 34.144531 53.75 34.304688 53.289062 34.121094 52.910156 C 33.539062 51.714844 32.308594 50.941406 30.980469 50.941406 C 29.652344 50.941406 28.417969 51.714844 27.839844 52.910156 C 27.65625 53.289062 27.8125 53.75 28.195312 53.933594 Z M 28.195312 53.933594 " fill-opacity="1" fill-rule="nonzero"/><path fill="#f471b7" d="M 40.394531 53.933594 C 40.773438 54.117188 41.234375 53.960938 41.417969 53.578125 C 41.746094 52.910156 42.433594 52.476562 43.179688 52.476562 C 43.921875 52.476562 44.613281 52.910156 44.9375 53.578125 C 45.070312 53.851562 45.34375 54.011719 45.628906 54.011719 C 45.742188 54.011719 45.855469 53.988281 45.964844 53.933594 C 46.34375 53.75 46.503906 53.289062 46.320312 52.910156 C 45.738281 51.714844 44.507812 50.941406 43.179688 50.941406 C 41.851562 50.941406 40.617188 51.714844 40.039062 52.910156 C 39.855469 53.289062 40.011719 53.75 40.394531 53.933594 Z M 40.394531 53.933594 " fill-opacity="1" fill-rule="nonzero"/><g clip-path="url(#256965e4d0)"><path fill="#f471b7" d="M 57.992188 32.984375 L 16.167969 32.984375 C 15.011719 32.984375 14.066406 33.929688 14.066406 35.085938 L 14.066406 76.910156 C 14.066406 78.066406 15.011719 79.011719 16.167969 79.011719 L 57.992188 79.011719 C 59.148438 79.011719 60.09375 78.066406 60.09375 76.910156 L 60.09375 35.085938 C 60.09375 33.929688 59.148438 32.984375 57.992188 32.984375 Z M 26.871094 36.40625 L 26.878906 36.40625 C 27.300781 36.40625 27.644531 36.75 27.644531 37.171875 C 27.644531 37.59375 27.300781 37.941406 26.878906 37.941406 C 26.457031 37.941406 26.101562 37.59375 26.101562 37.171875 C 26.101562 36.75 26.441406 36.40625 26.871094 36.40625 Z M 23.003906 36.40625 L 23.019531 36.40625 C 23.441406 36.40625 23.785156 36.75 23.785156 37.171875 C 23.785156 37.59375 23.441406 37.941406 23.019531 37.941406 C 22.589844 37.941406 22.242188 37.59375 22.242188 37.171875 C 22.242188 36.75 22.582031 36.40625 23.003906 36.40625 Z M 19.144531 36.40625 L 19.152344 36.40625 C 19.582031 36.40625 19.917969 36.75 19.917969 37.171875 C 19.917969 37.59375 19.582031 37.941406 19.152344 37.941406 C 18.730469 37.941406 18.386719 37.59375 18.386719 37.171875 C 18.386719 36.75 18.722656 36.40625 19.144531 36.40625 Z M 58.558594 76.910156 C 58.558594 77.222656 58.304688 77.476562 57.992188 77.476562 L 16.167969 77.476562 C 15.855469 77.476562 15.601562 77.222656 15.601562 76.910156 L 15.601562 41.363281 L 58.558594 41.363281 Z M 58.558594 76.910156 " fill-opacity="1" fill-rule="nonzero"/></g></svg>